<?xml version="1.0" encoding="utf-8"?>
<!-- Generator: Adobe Illustrator 16.0.0, SVG Export Plug-In . SVG Version: 6.00 Build 0)  -->
<!DOCTYPE svg PUBLIC "-//W3C//DTD SVG 1.1//EN" "http://www.w3.org/Graphics/SVG/1.1/DTD/svg11.dtd">
<svg version="1.1" id="レイヤー_1" xmlns="http://www.w3.org/2000/svg" xmlns:xlink="http://www.w3.org/1999/xlink" x="0px"
	 y="0px" width="141.732px" height="141.732px" viewBox="0 0 141.732 141.732" enable-background="new 0 0 141.732 141.732"
	 xml:space="preserve">
<g>
	<path fill="#040000" d="M108.812,25.237c-1.582,0.696-6.783,4.917-9.744,7.907l-3.012,3.046h-6.728
		c-6.405,0-6.796,0.076-8.153,1.557c-1.018,1.111-1.425,2.193-1.425,3.78c0,3.241,1.128,3.708,8.395,3.453
		c5.061-0.174,6.134-0.051,6.134,0.708c0,0.501-0.279,3.237-0.619,6.032c-0.335,2.795-0.458,5.905-0.268,6.859
		c0.306,1.519,0.62,1.748,2.397,1.748c2.749,0,4.411-2.032,4.411-5.4c0-3.13,1.18-8.573,2.686-12.382
		c1.099-2.774,4.043-5.969,7.326-7.95c3.551-2.142,4.123-3.05,3.712-5.9c-0.311-2.159-0.649-2.715-1.99-3.25
		C110.102,24.715,110.013,24.711,108.812,25.237"/>
	<path fill="#040000" d="M30.931,32.208c-1.616,1.565-2.019,4.594-0.835,6.27c0.526,0.742,3.097,2.677,5.786,4.352
		c2.693,1.676,5.621,3.708,6.596,4.573c0.967,0.861,2.528,1.938,3.496,2.414c1.557,0.764,1.858,1.332,2.719,5.209
		c0.539,2.414,1.731,6.189,2.686,8.48c1.926,4.636,3.207,5.371,6.193,3.563c2.371-1.429,2.486-2.867,0.683-8.454
		c-0.878-2.732-1.765-6.566-1.973-8.543l-0.377-3.588l2.639-0.433c5.922-0.963,8.289-2.6,8.289-5.731c0-1.904-0.271-2.375-1.883-3.3
		c-1.74-0.997-2.261-1.001-6.728-0.063c-2.694,0.564-5.922,1.637-7.267,2.414l-2.422,1.396l-3.097-2.096
		c-1.675-1.137-4.547-3.245-6.27-4.603C35.504,31.177,32.653,30.532,30.931,32.208"/>
	<path fill="#040000" d="M61.06,77.034c-1.722,2.27-1.769,3.177-0.428,8.514c1.625,6.478,4.017,12.157,6.197,14.732l1.777,2.1
		l-0.483,5.557c-0.31,3.555-0.292,6.186,0.051,7.305c0.522,1.68,0.649,1.735,3.394,1.409c3.491-0.412,4.225-1.379,4.675-6.143
		c0.179-1.905,0.564-4.531,0.84-5.778c0.284-1.268,0.514-3.622,0.514-5.272c0-3.203,0.874-5.082,5.998-12.896
		c3.084-4.7,3.326-6.749,1.107-9.277c-0.811-0.916-1.858-1.71-2.261-1.71c-0.861,0-3.768,3.084-3.768,4.001
		c0,0.322-0.827,1.713-1.883,3.177c-1.243,1.714-1.786,2.995-1.591,3.746c0.183,0.699,0.004,1.145-0.458,1.145
		c-0.42,0-1.298,0.696-1.99,1.587c-0.695,0.891-1.378,1.587-1.561,1.587c-0.53,0-2.206-4.637-2.206-6.096
		c0-0.704-0.374-2.762-0.836-4.607c-0.619-2.478-1.179-3.491-2.18-3.94C63.817,75.205,62.235,75.485,61.06,77.034"/>
</g>
</svg>
