<?xml version="1.0" encoding="utf-8"?>
<!-- Generator: Adobe Illustrator 16.0.0, SVG Export Plug-In . SVG Version: 6.00 Build 0)  -->
<!DOCTYPE svg PUBLIC "-//W3C//DTD SVG 1.1//EN" "http://www.w3.org/Graphics/SVG/1.1/DTD/svg11.dtd">
<svg version="1.1" id="レイヤー_1" xmlns="http://www.w3.org/2000/svg" xmlns:xlink="http://www.w3.org/1999/xlink" x="0px"
	 y="0px" width="365.897px" height="82.167px" viewBox="0 0 365.897 82.167" enable-background="new 0 0 365.897 82.167"
	 xml:space="preserve">
<polygon points="41.957,44.741 30.818,23.778 36.668,23.778 44.478,39.055 52.411,23.778 58.059,23.778 46.924,44.592 
	46.924,58.388 41.957,58.388 "/>
<polygon points="75.18,44.741 64.042,23.778 69.892,23.778 77.701,39.055 85.634,23.778 91.282,23.778 80.147,44.592 80.147,58.388 
	75.18,58.388 "/>
<polygon points="108.399,44.741 97.265,23.778 103.112,23.778 110.926,39.055 118.854,23.778 124.501,23.778 113.367,44.592 
	113.367,58.388 108.399,58.388 "/>
<g>
	<defs>
		<rect id="SVGID_1_" y="0" width="365.897" height="82.167"/>
	</defs>
	<clipPath id="SVGID_2_">
		<use xlink:href="#SVGID_1_"  overflow="visible"/>
	</clipPath>
	<path clip-path="url(#SVGID_2_)" d="M182.703,23.778h11.055c6.57,0,10.657,4.598,10.657,11.571v0.097
		c0,7.763-5.047,11.816-11.216,11.816h-5.567v11.127h-4.929V23.778z M193.36,41.775c3.723,0,6.046-2.572,6.046-6.181v-0.097
		c0-4.058-2.361-6.181-6.046-6.181h-5.729v12.459H193.36z"/>
	<path clip-path="url(#SVGID_2_)" d="M214.603,23.778h12.502c3.524,0,6.287,1.286,8.089,3.46c1.485,1.879,2.327,4.451,2.327,7.467
		v0.098c0,5.686-2.767,9.1-6.651,10.482l7.569,13.104h-5.847l-6.893-12.066h-6.168v12.066h-4.929V23.778z M226.74,40.933
		c3.528,0,5.771-2.272,5.771-5.783v-0.102c0-3.706-2.162-5.732-5.81-5.732h-7.171v11.617H226.74z"/>
	<polygon clip-path="url(#SVGID_2_)" points="248.71,23.778 269.5,23.778 269.5,29.213 253.64,29.213 253.64,38.212 267.697,38.212 
		267.697,43.654 253.64,43.654 253.64,52.949 269.703,52.949 269.703,58.388 248.71,58.388 	"/>
	<path clip-path="url(#SVGID_2_)" d="M278.766,53.346l2.966-4.354c2.686,2.868,5.407,4.501,8.854,4.501
		c3.041,0,4.967-1.781,4.967-4.353v-0.099c0-2.47-1.121-3.807-6.329-5.288c-5.97-1.78-9.333-3.959-9.333-10.335v-0.101
		c0-5.932,4.003-10.035,9.573-10.035c4.083,0,7.328,1.531,10.176,4.349l-2.645,4.599c-2.525-2.323-5.047-3.558-7.61-3.558
		c-2.886,0-4.569,1.827-4.569,4.103v0.098c0,2.669,1.282,3.858,6.688,5.44c5.932,1.781,8.974,4.399,8.974,10.137v0.097
		c0,6.479-4.125,10.337-10.015,10.337C286.178,58.884,282.133,57.052,278.766,53.346"/>
	<path clip-path="url(#SVGID_2_)" d="M309.104,53.346l2.966-4.354c2.687,2.868,5.407,4.501,8.855,4.501
		c3.041,0,4.966-1.781,4.966-4.353v-0.099c0-2.47-1.121-3.807-6.329-5.288c-5.969-1.78-9.333-3.959-9.333-10.335v-0.101
		c0-5.932,4.003-10.035,9.574-10.035c4.083,0,7.328,1.531,10.175,4.349l-2.645,4.599c-2.525-2.323-5.047-3.558-7.61-3.558
		c-2.885,0-4.569,1.827-4.569,4.103v0.098c0,2.669,1.282,3.858,6.689,5.44c5.931,1.781,8.973,4.399,8.973,10.137v0.097
		c0,6.479-4.125,10.337-10.014,10.337C316.516,58.884,312.472,57.052,309.104,53.346"/>
</g>
</svg>
